<svg viewBox="0 0 52 52" fill="none" xmlns="http://www.w3.org/2000/svg"><path fill-rule="evenodd" clip-rule="evenodd" d="M26.002 12.437c7.492 0 13.565 6.072 13.565 13.565 0 6.772-4.96 12.383-11.446 13.4v-9.48h3.161l.602-3.92h-.007v-.004h-3.756v-2.54c0-1.073.525-2.12 2.21-2.12h1.711V18h-.005v-.004s-1.553-.265-3.037-.265c-3.1 0-5.124 1.879-5.124 5.278v2.989h-3.444v3.921h.006v.004h3.438v9.476h.006v.004c-6.486-1.018-11.446-6.63-11.446-13.401 0-7.493 6.073-13.565 13.566-13.565z" fill="#E00D5B"/></svg>