<svg viewBox="0 0 56 56" fill="none" xmlns="http://www.w3.org/2000/svg"><path d="M27.989 5.045c7.478 0 8.355.034 11.311.167 2.733.122 4.211.578 5.2.967 1.311.511 2.244 1.111 3.222 2.09.978.977 1.59 1.91 2.09 3.222.377.99.844 2.467.966 5.201.133 2.956.166 3.834.166 11.314 0 7.479-.033 8.357-.166 11.313-.122 2.734-.578 4.212-.967 5.2-.511 1.312-1.111 2.246-2.089 3.224-.978.978-1.91 1.589-3.222 2.09-.989.377-2.467.844-5.2.966-2.956.133-3.833.167-11.311.167s-8.356-.034-11.311-.167c-2.734-.122-4.211-.578-5.2-.967-1.311-.511-2.245-1.111-3.222-2.09-.978-.977-1.59-1.91-2.09-3.222-.377-.99-.844-2.467-.966-5.201-.133-2.956-.167-3.834-.167-11.313 0-7.48.034-8.358.167-11.314.122-2.734.578-4.212.967-5.2.51-1.312 1.11-2.246 2.089-3.224.977-.978 1.91-1.589 3.222-2.089.989-.378 2.466-.845 5.2-.967 2.955-.144 3.844-.167 11.31-.167zm0-5.045c-7.6 0-8.556.033-11.545.167-2.977.133-5.01.61-6.788 1.3-1.845.711-3.4 1.678-4.956 3.234-1.556 1.556-2.511 3.123-3.233 4.956C.777 11.436.3 13.47.167 16.46.033 19.437 0 20.393 0 27.994c0 7.602.033 8.558.167 11.547.133 2.979.61 5.012 1.3 6.802.71 1.844 1.677 3.4 3.233 4.956 1.556 1.556 3.122 2.512 4.956 3.234 1.777.69 3.81 1.167 6.8 1.3C19.444 55.967 20.389 56 28 56c7.611 0 8.556-.033 11.544-.167 2.978-.133 5.012-.61 6.8-1.3 1.845-.711 3.4-1.678 4.956-3.234 1.556-1.556 2.511-3.123 3.233-4.956.69-1.779 1.167-3.812 1.3-6.802.134-2.99.167-3.934.167-11.547 0-7.612-.033-8.557-.167-11.546-.133-2.979-.61-5.012-1.3-6.802-.71-1.844-1.677-3.4-3.233-4.956-1.556-1.556-3.122-2.512-4.956-3.234-1.777-.69-3.81-1.167-6.8-1.3C36.544.033 35.59 0 27.99 0z" fill="#fff"/><path d="M27.99 13.625c-7.933 0-14.378 6.434-14.378 14.38 0 7.946 6.434 14.381 14.378 14.381 7.945 0 14.378-6.435 14.378-14.38 0-7.947-6.434-14.381-14.378-14.381zm0 23.705a9.333 9.333 0 01-9.333-9.336 9.333 9.333 0 019.333-9.335 9.333 9.333 0 019.333 9.335 9.333 9.333 0 01-9.333 9.336zm14.94-20.927a3.356 3.356 0 100-6.712 3.356 3.356 0 000 6.712z" fill="#fff"/></svg>