<svg viewBox="0 0 52 52" fill="none" xmlns="http://www.w3.org/2000/svg"><path d="M39 24.56C39 18.73 33.17 14 26 14s-13 4.73-13 10.56c0 5.207 4.611 9.58 10.858 10.412.417.09 1.012.268 1.13.655.12.327.09.833.03 1.19 0 0-.148.922-.178 1.1-.06.328-.268 1.28 1.13.715 1.398-.595 7.497-4.403 10.204-7.556C38.078 28.963 39 26.88 39 24.56zm-17.581 3.095c0 .148-.12.267-.238.267h-3.66c-.059 0-.118-.03-.178-.06-.03-.059-.06-.118-.06-.178v-5.652c0-.149.12-.268.268-.268h.923c.148 0 .267.12.267.268v4.462h2.47c.148 0 .238.12.238.268v.892h-.03zm2.201 0c0 .148-.119.237-.268.237h-.922c-.148 0-.267-.119-.267-.238v-5.652c0-.148.119-.238.267-.238h.922c.15 0 .268.12.268.238v5.652zm6.277 0c0 .148-.119.237-.268.237h-1.041c-.03-.03-.06-.03-.06-.059l-2.587-3.51v3.361c0 .149-.12.238-.268.238h-.922c-.15 0-.268-.119-.268-.238v-5.652c0-.149.119-.238.268-.238h.952l.03.03s0 .03.029.03l2.707 3.51v-3.362c0-.148.12-.238.268-.238h.922c.149 0 .268.12.268.238v5.652h-.03zm5.028-4.76c0 .149-.12.268-.238.268h-2.47v.951h2.47c.148 0 .238.12.238.268v.922c0 .15-.12.268-.238.268h-2.47v.922h2.47c.148 0 .238.12.238.268v.922c0 .149-.12.268-.238.268h-3.66a.422.422 0 01-.178-.06.421.421 0 01-.06-.178v-5.652c0-.06.03-.12.06-.179.06-.03.119-.06.178-.06h3.63c.149 0 .238.12.238.268v.804h.03z" fill="#E00D5B"/></svg>