<svg viewBox="0 0 52 52" fill="none" xmlns="http://www.w3.org/2000/svg"><path d="M22.096 36.742c10.237 0 15.837-8.482 15.837-15.837 0-.241 0-.481-.016-.72a11.324 11.324 0 002.777-2.881 11.14 11.14 0 01-3.197.876 5.585 5.585 0 002.447-3.08 11.152 11.152 0 01-3.535 1.352 5.572 5.572 0 00-9.485 5.076 15.802 15.802 0 01-11.472-5.815 5.57 5.57 0 001.723 7.43 5.526 5.526 0 01-2.526-.696v.07a5.567 5.567 0 004.465 5.457 5.558 5.558 0 01-2.513.095 5.573 5.573 0 005.2 3.866 11.169 11.169 0 01-8.237 2.307 15.757 15.757 0 008.532 2.496" fill="#E00D5B"/></svg>