<svg viewBox="0 0 324 365" fill="none" xmlns="http://www.w3.org/2000/svg"><path d="M95.655 42.919c8.937-1.762 13.594-8.81 13.09-17.243-.629-10.824-7.678-14.097-16.74-12.209-9.062 1.888-13.593 8.81-13.09 17.243.63 10.321 7.678 14.097 16.74 12.209zm90.621 26.809v55.253l26.179-4.405V66.078c-.252-23.159-16.11-29.2-38.388-25.299-9.566 1.636-27.69 7.174-43.422 16.11v77.28l26.431-4.405V50.471c4.782-1.888 9.565-3.021 12.082-3.524 10.195-1.637 16.866 2.14 17.118 22.78zM97.417 178.724c-5.16.881-11.705 2.895-16.865 5.79v-41.786l26.431-4.406V55.757l-26.431 4.405v82.44s-18.88 3.02-26.18 2.391c-9.062-.755-13.719-4.909-13.97-26.809V72.119l25.298-4.28v-5.16l-25.298 4.28v-29.83l-5.16.881S29.2 56.638 19.76 64.567C10.95 71.993 0 73.755 0 73.755v5.16l14.6-2.39v45.435c.252 23.788 11.076 32.724 32.095 29.074 1.384-.251 4.027-.755 7.426-1.384v113.024c12.712 2.643 27.69 3.273 38.388 1.385 26.179-4.531 50.344-21.145 49.967-52.233-.126-31.34-24.795-36.626-45.059-33.102zm-5.664 78.538c-5.034.881-8.558.881-11.075.881v-68.091c2.013-1.385 6.293-3.147 9.817-3.776 14.096-2.517 24.669 10.95 25.046 35.996.252 26.431-11.957 32.976-23.788 34.99zm175.956-143.483c4.531-.755 12.208-2.517 19.508-5.789v-4.657c-3.146 1.007-6.167 1.762-9.817 2.391-10.572 1.888-15.229-2.769-15.481-24.669V34.99l25.298-4.28v-5.16l-25.298 4.28V0l-5.16.881s-6.042 18.628-15.481 26.557c-8.936 7.426-19.886 9.188-19.886 9.188v5.16l14.6-2.391V84.83c.377 23.662 10.698 32.724 31.717 28.948zm16.613 58.778v-31.466l-25.801 4.28v86.341l25.801-4.279v-23.411c1.762-18.25 9.188-48.834 39.647-42.919v-27.689c-4.28-.252-31.088 3.272-39.647 39.143zm-84.956-13.593c-18.376 3.524-36.123 15.607-38.262 28.193-1.385 7.803 9.565 12.083 21.774 9.943-.252-18.502 3.398-29.578 14.222-32.221 10.195-2.517 15.104 6.671 15.355 23.411v4.531l-5.286 1.762c-37.129 14.096-50.219 21.9-49.967 35.619.252 19.005 22.529 19.257 40.402 16.11 15.984-2.769 32.598-10.069 41.031-15.355v-40.024c.125-28.319-17.118-36.123-39.269-31.969zm1.51 80.677c-8.936 1.637-15.481-2.769-15.607-15.103-.126-10.824 7.3-18.628 22.278-24.04l4.908-1.762v37.255c-3.02 1.511-6.67 2.769-11.579 3.65zM40.024 318.305c-.503-.126-.881-.378-1.385-.629-.377-.252-.88-.504-1.258-.881-.378-.252-.755-.63-1.133-1.007-.63-.629-1.133-1.385-1.51-2.14a4.444 4.444 0 01-.504-2.139c0-.756.126-1.385.378-2.14.252-.629.755-1.259 1.259-1.762.629-.63 1.258-1.007 2.013-1.259.755-.252 1.385-.252 2.14-.126.755.126 1.384.378 2.14.755.629.378 1.258.882 1.888 1.511.88.881 1.636 2.014 2.391 3.524l-2.014 1.888c-.126-.629-.377-1.133-.503-1.762-.252-.504-.504-1.007-1.007-1.511-.378-.503-.881-.755-1.51-1.006-.504-.252-1.133-.252-1.637-.252-.503.126-1.007.252-1.51.755-.378.378-.63.755-.755 1.259-.126.503-.126 1.007.126 1.636.125.503.503 1.007.88 1.51.378.378.756.755 1.133 1.007.378.252.756.504 1.133.629.378.126.63.252 1.133.378l-1.888 1.762zM51.1 329.129l-2.518-2.139 2.643-3.021-3.776-3.273-2.643 3.021-2.517-2.139 6.797-7.93 2.517 2.14-2.517 2.895 3.776 3.272 2.517-2.895 2.517 2.14-6.797 7.929zm16.236 5.286a4.916 4.916 0 01-2.14 1.763c-.88.377-1.761.503-2.768.377s-2.14-.629-3.147-1.384c-1.133-.756-1.888-1.637-2.391-2.518-.504-1.007-.63-1.888-.504-2.769.126-.881.378-1.762 1.007-2.517a5.393 5.393 0 012.014-1.762c.88-.377 1.762-.503 2.769-.378 1.007.126 2.14.63 3.272 1.385a9.831 9.831 0 012.014 1.888c.504.629.755 1.384.881 2.014a5.417 5.417 0 010 2.014c-.377.755-.63 1.384-1.007 1.887zm-2.769-1.887c.252-.378.378-.63.504-1.007.126-.378.126-.63 0-1.007 0-.378-.252-.63-.378-1.007-.252-.252-.503-.629-.88-.881-.756-.504-1.385-.755-2.14-.63-.63.126-1.26.504-1.763 1.133a2.463 2.463 0 00-.503 2.014c.126.629.503 1.259 1.259 1.762.503.378 1.006.504 1.51.629.503 0 .88 0 1.384-.251.378 0 .755-.378 1.007-.755zm15.733 9.439a5.823 5.823 0 01-1.888 2.014c-.755.503-1.762.755-2.769.629-1.007 0-2.14-.377-3.272-1.007-1.133-.629-2.014-1.384-2.643-2.391-.504-.881-.881-1.762-.881-2.769 0-.881.251-1.762.755-2.643.503-.755 1.133-1.51 1.888-1.888.755-.503 1.762-.755 2.769-.629 1.007 0 2.14.377 3.398 1.007.881.503 1.636 1.006 2.14 1.762.503.629.88 1.258 1.132 2.013.252.63.252 1.385.126 2.014a5.926 5.926 0 01-.755 1.888zm-2.895-1.636c.252-.378.378-.629.378-1.007v-1.007c-.126-.377-.252-.629-.504-.881-.251-.252-.503-.503-1.007-.755-.755-.378-1.51-.503-2.14-.378-.628.126-1.258.63-1.635 1.259-.378.629-.504 1.384-.252 2.014.252.629.63 1.258 1.384 1.636.504.252 1.007.503 1.51.503.504 0 .882-.125 1.26-.377.503-.126.755-.504 1.006-1.007zm12.083 8.307c-.252.629-.63 1.007-1.133 1.259-.504.251-1.133.377-1.762.377-.63 0-1.385-.252-2.14-.503l-.755-.378c-.252-.126-.63-.377-1.133-.755-.377-.378-.88-.755-1.258-1.259l1.007-2.265c.377.503.755 1.007 1.132 1.384.378.378.881.755 1.385 1.007.503.252.88.252 1.132.252.252-.126.378-.252.378-.378.126-.251.126-.503-.126-.881-.126-.251-.503-.629-.88-1.007-.378-.503-.756-.881-1.133-1.384-.252-.504-.504-.881-.504-1.385-.126-.503 0-1.006.252-1.51.251-.503.63-.881 1.007-1.259a3.493 3.493 0 011.636-.377c.63 0 1.384.126 2.14.503.503.252 1.006.504 1.51.881.377.378.755.63 1.007.881.251.252.377.504.503.63l-1.007 2.265c-.251-.503-.629-.881-1.007-1.384-.377-.504-.88-.755-1.384-1.007-.378-.126-.63-.252-.881-.126-.252 0-.378.126-.504.378-.125.125-.125.377 0 .629.126.252.378.503.63.881.63.629 1.007 1.259 1.384 1.762.378.503.504 1.007.63 1.384.125.378.125.882-.126 1.385zm10.068 7.174l-7.677-2.895 3.65-9.691 7.552 2.895-.756 1.888-4.53-1.637-.63 1.762 4.279 1.637-.755 2.013-4.28-1.636-.754 2.14 4.657 1.762-.755 1.762zm19.383 4.657c-.503.126-1.006.126-1.51.126-.503 0-1.007 0-1.51-.126-.504 0-1.007-.126-1.511-.252-.881-.252-1.762-.503-2.391-1.007-.629-.377-1.259-.881-1.636-1.51a5.556 5.556 0 01-.755-2.014c-.126-.755-.126-1.384.126-2.139.251-.882.503-1.637 1.006-2.14.504-.629 1.007-1.007 1.762-1.259.63-.251 1.385-.503 2.14-.503.755 0 1.51 0 2.392.252 1.258.251 2.517.881 3.901 1.762l-.629 2.643c-.504-.378-.881-.881-1.385-1.133a3.75 3.75 0 00-1.762-.755c-.629-.126-1.258-.126-1.762-.126a4.202 4.202 0 00-1.51.629c-.378.378-.755.755-.881 1.385-.126.503-.126 1.007.126 1.51.126.503.503.881.881 1.259.503.377 1.007.629 1.636.755.503.126 1.007.126 1.51.126.504 0 .881 0 1.259-.126.378-.126.755-.126 1.133-.252l-.63 2.895zm16.111-1.762c-.126 1.007-.504 1.762-1.133 2.517-.63.755-1.385 1.259-2.392 1.636-1.007.378-2.139.378-3.398.252-1.384-.252-2.391-.629-3.272-1.259-.881-.629-1.385-1.384-1.762-2.265-.378-.881-.378-1.762-.252-2.643a5.06 5.06 0 011.133-2.517c.629-.756 1.384-1.259 2.391-1.637 1.007-.377 2.14-.377 3.524-.251 1.007.126 1.888.377 2.643.881.755.377 1.259.881 1.762 1.384.378.504.756 1.133.881 1.888 0 .629 0 1.385-.125 2.014zm-3.273-.504v-1.132c-.126-.378-.252-.63-.377-.881-.252-.252-.504-.504-.756-.63l-1.132-.377c-.881-.126-1.637 0-2.14.377-.629.378-.881 1.007-1.007 1.762-.126.756 0 1.511.503 2.014.378.504 1.007.881 1.888 1.007.63.126 1.133 0 1.511-.126.503-.126.881-.377 1.133-.755.125-.252.251-.755.377-1.259zm14.6 6.545l-8.181-.629.755-10.321 3.273.252-.504 7.929 4.909.378-.252 2.391zm15.356-5.16a5.857 5.857 0 01-.629 2.643 5.172 5.172 0 01-2.014 2.014c-.881.503-2.014.755-3.398.755-1.385 0-2.518-.252-3.399-.755-.881-.504-1.636-1.133-2.139-1.888-.504-.755-.756-1.636-.756-2.643 0-.881.252-1.762.63-2.643.377-.881 1.133-1.511 2.014-2.014.881-.504 2.013-.755 3.398-.755 1.007 0 1.888.125 2.643.377.755.252 1.384.63 2.014 1.133.503.503.881 1.007 1.132 1.636.378.755.504 1.385.504 2.14zm-3.398 0c0-.378-.126-.755-.252-1.007-.126-.378-.252-.629-.504-.881-.251-.252-.503-.378-.881-.504-.377-.125-.755-.125-1.258-.125-.881 0-1.511.251-2.014.755-.503.503-.755 1.133-.755 1.888 0 .755.252 1.384.755 1.888.503.503 1.259.755 2.14.755.629 0 1.132-.126 1.51-.378.378-.251.755-.503 1.007-1.007.252-.377.252-.881.252-1.384zm17.871 3.776l-3.524.377-1.007-1.762c-.377-.629-.755-1.132-1.007-1.384-.251-.252-.503-.504-.755-.504s-.503-.125-.881 0h-.377l.377 4.028-3.272.378-1.133-10.321 5.538-.629c.881-.126 1.636 0 2.265.251.63.252 1.007.63 1.385 1.133.252.504.503.881.503 1.385 0 .503 0 1.006-.126 1.384-.125.378-.377.629-.629.881-.252.126-.503.378-.755.503.378.126.629.378.881.63s.629.755 1.133 1.51l1.384 2.14zm-5.16-6.671c0-.503-.252-.755-.629-1.007a3.187 3.187 0 00-1.637-.126l-.629.126.252 2.517.755-.125c.755-.126 1.384-.252 1.636-.378.126-.126.252-.503.252-1.007zm26.306 2.14l-3.273.755-1.384-1.888-4.531 1.133-.378 2.265-3.272.755 2.265-11.201 3.524-.881 7.049 9.062zm-5.79-2.643l-2.391-3.273-.63 4.028 3.021-.755zm15.23-3.525c.251.63.251 1.259 0 1.763-.126.503-.504 1.006-1.007 1.51a6.703 6.703 0 01-1.888 1.007c-.252.126-.504.126-.755.251-.378.126-.756.126-1.259.126h-1.762l-.755-2.391c.629.126 1.258.252 1.762.252.629 0 1.133 0 1.762-.252.503-.126.881-.378 1.007-.629.126-.252.126-.378.126-.504-.126-.252-.252-.503-.63-.503-.377-.126-.755-.126-1.384-.126-.629 0-1.259-.126-1.762-.252a4.65 4.65 0 01-1.385-.629c-.377-.378-.755-.755-.881-1.259-.126-.503-.251-1.007 0-1.636.126-.503.378-1.007.881-1.384.504-.504 1.133-.756 1.888-1.007.63-.126 1.133-.252 1.636-.378.504 0 1.007-.126 1.385 0 .377 0 .629 0 .755.126l.755 2.265c-.503-.125-1.132-.251-1.636-.377-.629 0-1.133 0-1.762.252-.378.125-.629.251-.755.503s-.126.378-.126.629c.126.252.252.378.378.378.251.126.629.126 1.132.252.881.126 1.637.251 2.266.377s1.007.378 1.384.63c.126 0 .378.377.63 1.006zm15.858-14.851l-1.51 6.922 2.014 4.279-3.021 1.385-2.014-4.279-6.293-3.399 3.147-1.384 3.65 1.888.881-4.028 3.146-1.384zm14.725-2.392c.504.881.756 1.762.756 2.643 0 .882-.252 1.888-.881 2.769-.504.881-1.385 1.637-2.518 2.266-1.132.629-2.265 1.007-3.272 1.007-1.007 0-2.014-.252-2.769-.629a6.748 6.748 0 01-1.888-1.888c-.503-.756-.755-1.637-.755-2.643 0-.882.252-1.888.755-2.769.503-.881 1.385-1.637 2.643-2.392.881-.503 1.762-.881 2.517-1.007.881-.126 1.637-.126 2.266 0s1.259.504 1.888.881c.503.63.881 1.133 1.258 1.762zm-2.894 1.637c-.252-.378-.378-.63-.63-.881-.251-.252-.503-.378-.881-.504-.377-.126-.629-.126-1.007 0-.377 0-.755.252-1.132.378-.756.377-1.259 1.007-1.385 1.636-.252.629-.126 1.384.252 2.014.377.629.881 1.132 1.636 1.258.629.126 1.385 0 2.14-.377.503-.252.881-.63 1.132-1.007.252-.378.378-.881.378-1.259-.126-.377-.252-.755-.503-1.258zm15.355-9.692c.504.755.755 1.385.881 2.14.126.755 0 1.384-.251 2.014a8.08 8.08 0 01-1.007 1.762c-.504.503-.881 1.007-1.511 1.384-.755.504-1.51.881-2.391 1.133a4.715 4.715 0 01-2.643 0c-.881-.252-1.636-.881-2.392-1.762l-3.272-4.657 2.643-1.888 2.895 4.028c.378.503.755 1.007 1.259 1.258.377.252.881.378 1.258.252.378 0 .881-.252 1.259-.503.377-.252.629-.63.881-1.007.126-.378.252-.755.126-1.259-.126-.503-.378-1.007-.755-1.51l-2.895-4.028 2.643-1.888 3.272 4.531zm17.117-8.558l-6.041 5.538-7.049-7.678 2.392-2.266 5.286 5.79 3.65-3.398 1.762 2.014zm4.783-5.035l-2.265 2.391-7.426-7.174 2.265-2.391 7.426 7.174zm10.446-11.957l-2.517 3.021h-6.419l3.776 3.146-2.14 2.518-7.929-6.671 2.14-2.517 3.524 3.02-1.007-6.041 2.266-2.769 1.132 6.293h7.174zm6.671-9.439l-4.783 6.67-8.432-6.041 4.657-6.545 1.762 1.259-2.769 3.901 1.51 1.133 2.643-3.776 1.762 1.259-2.643 3.776 1.762 1.258 2.895-4.027 1.636 1.133z" fill="#E00D5B"/></svg>